<svg width="19" height="19" viewBox="0 0 19 19" fill="none" xmlns="http://www.w3.org/2000/svg">
<g clip-path="url(#clip0_2613_3244)">
<path d="M16.5561 10.408L16.6511 9.6995C17.4008 10.1555 17.647 10.4294 17.723 10.5474C17.5964 10.5719 17.2781 10.5838 16.5561 10.408ZM14.835 16.7319C14.8324 16.751 14.8311 16.7703 14.8311 16.7897C14.8311 16.8562 14.6672 17.1103 13.9413 17.3977C13.5706 17.5393 13.1901 17.6536 12.8028 17.7397C11.6905 17.997 10.3265 18.1387 8.96088 18.1387C5.30972 18.1387 3.09305 17.2013 3.09305 16.7897C3.09302 16.7703 3.0917 16.751 3.08909 16.7319L1.43292 4.43492C1.5398 4.49667 1.65459 4.55683 1.77493 4.61462C1.80818 4.63046 1.84301 4.64471 1.87626 4.65975C1.98234 4.70883 2.09159 4.75633 2.20638 4.80225L2.34809 4.85688C2.47001 4.90279 2.59667 4.94712 2.72651 4.98988C2.76055 5.00017 2.79301 5.01283 2.82943 5.02392C2.9933 5.07538 3.1643 5.12446 3.34084 5.17196L3.48018 5.20679C3.61872 5.24163 3.75963 5.27567 3.90293 5.30733C4.12454 5.35628 4.34704 5.40114 4.5703 5.44192L4.66609 5.46012C4.86559 5.49575 5.06826 5.52742 5.27409 5.55671C5.3303 5.56542 5.38809 5.57254 5.44509 5.58046C5.60343 5.60183 5.76176 5.62242 5.92326 5.64142L6.11326 5.66279C6.30722 5.68337 6.50117 5.70238 6.69909 5.71821L6.76322 5.72533C6.98092 5.74275 7.20022 5.757 7.4203 5.76967L7.60476 5.77917C7.77101 5.78708 7.93884 5.79342 8.10588 5.79896C8.84341 5.82327 9.58164 5.8164 10.3186 5.77838L10.5023 5.76967C10.7223 5.757 10.9416 5.74275 11.1593 5.72533L11.2227 5.719C11.4206 5.70317 11.6161 5.68337 11.8101 5.662L11.9985 5.64142C12.1608 5.62242 12.3215 5.60183 12.4806 5.58046C12.536 5.57254 12.5923 5.56542 12.6477 5.55671C12.8543 5.52742 13.0585 5.49496 13.2588 5.46012L13.3467 5.44429C13.5169 5.41262 13.6848 5.37937 13.8486 5.34533L14.0165 5.30813C14.1637 5.27567 14.3078 5.24083 14.4487 5.20521L14.5801 5.17196C14.7583 5.12446 14.9316 5.07538 15.0979 5.02233C15.1295 5.01283 15.1588 5.00175 15.1889 4.99225C15.3201 4.94981 15.4503 4.90414 15.5792 4.85529C15.6251 4.83867 15.6695 4.82046 15.7138 4.80304C15.8326 4.75554 15.9458 4.70804 16.0542 4.65658C16.0843 4.64313 16.1168 4.62967 16.146 4.61542C16.2672 4.55762 16.3835 4.49667 16.4912 4.43492L15.7185 10.1705C13.7489 9.55304 11.1229 8.35604 9.93067 7.79554C9.92963 7.56764 9.83847 7.34941 9.6771 7.18848C9.51573 7.02755 9.29724 6.937 9.06934 6.93658C8.59434 6.93658 8.20801 7.32371 8.20801 7.79792C8.20801 8.27292 8.59434 8.66004 9.06934 8.66004C9.22451 8.66004 9.36859 8.61571 9.49447 8.54288C10.8561 9.18571 13.5668 10.4167 15.6022 11.0366L14.835 16.7319ZM8.96088 0.861333C13.4552 0.861333 16.621 2.25388 16.6796 3.02733L16.6685 3.11679C16.6606 3.14292 16.644 3.16983 16.6305 3.19675C16.6187 3.21892 16.61 3.24188 16.5933 3.26562C16.5743 3.29175 16.5474 3.31946 16.5221 3.34638C16.4999 3.37013 16.4817 3.39388 16.4556 3.41762C16.4255 3.44533 16.3867 3.47304 16.3503 3.50075C16.3186 3.5245 16.2917 3.54825 16.2561 3.57279C16.2141 3.60129 16.1643 3.629 16.116 3.6575C16.0764 3.68125 16.0408 3.705 15.9972 3.72875C15.9434 3.75725 15.8808 3.78654 15.8215 3.81583C15.7748 3.838 15.7312 3.86096 15.6813 3.88313C15.6148 3.91321 15.5412 3.94171 15.4692 3.971C15.4153 3.99237 15.3663 4.01375 15.3085 4.03592C15.2317 4.06442 15.1462 4.09292 15.063 4.12063C15.0037 4.14121 14.9459 4.16258 14.8825 4.18317C14.7947 4.21088 14.6981 4.23779 14.6055 4.26471C14.5382 4.28371 14.4748 4.30429 14.4052 4.3225C14.307 4.34942 14.2009 4.37396 14.0972 4.40008C14.0236 4.4175 13.9539 4.4365 13.8771 4.45392C13.7671 4.47925 13.6499 4.50221 13.5343 4.52596C13.4568 4.54179 13.3831 4.55842 13.3024 4.57346C13.1797 4.59721 13.049 4.61858 12.9208 4.63996C12.8416 4.65421 12.764 4.66846 12.6817 4.68113C12.5503 4.70171 12.411 4.71913 12.274 4.73813C12.1869 4.74921 12.1054 4.76188 12.0167 4.77296C11.8734 4.79117 11.7222 4.80542 11.5734 4.82046C11.4863 4.82996 11.4008 4.84025 11.3105 4.84896C11.1617 4.86163 11.005 4.87192 10.8514 4.883C10.7548 4.89013 10.6614 4.89883 10.5632 4.90517C10.3993 4.91467 10.2291 4.921 10.0605 4.92733C9.96551 4.93129 9.87526 4.93683 9.78026 4.94C9.23439 4.95587 8.68817 4.95587 8.1423 4.94C8.0473 4.93683 7.95705 4.93129 7.86363 4.92733C7.69422 4.921 7.52322 4.91467 7.35934 4.90517C7.26276 4.89883 7.17092 4.88933 7.07434 4.88379C6.91997 4.87192 6.76242 4.86163 6.61201 4.84896C6.52493 4.84104 6.4418 4.82996 6.35551 4.82125C6.20509 4.80542 6.05151 4.79117 5.90584 4.77375L5.65647 4.73892C5.51713 4.71992 5.37542 4.7025 5.24084 4.68113C5.16167 4.66925 5.08884 4.655 5.01126 4.64154C4.87905 4.61938 4.74605 4.598 4.62017 4.57346C4.54418 4.55921 4.4753 4.54338 4.40167 4.52913C4.28213 4.50379 4.16022 4.48004 4.04543 4.45392C3.97418 4.43808 3.90847 4.41988 3.83959 4.40325C3.73034 4.37633 3.6203 4.35021 3.51738 4.3225C3.45247 4.30508 3.39309 4.28608 3.33134 4.26787C3.23377 4.24096 3.13665 4.21246 3.04001 4.18237C2.98063 4.16337 2.92838 4.14358 2.87138 4.12458C2.7843 4.09529 2.69484 4.06521 2.61409 4.03513C2.56105 4.01533 2.51513 3.99475 2.46526 3.97417C2.38926 3.94408 2.31088 3.914 2.24201 3.88313C2.19451 3.86175 2.15493 3.84037 2.11059 3.81979C2.04726 3.78892 1.98234 3.75883 1.92613 3.72796C1.88497 3.70579 1.85172 3.68442 1.81372 3.66146C1.76384 3.63138 1.7108 3.60208 1.66726 3.572C1.63322 3.54904 1.60788 3.52608 1.5778 3.50392C1.5398 3.47463 1.50022 3.44613 1.46776 3.41683C1.44243 3.39388 1.42501 3.37171 1.40443 3.34796C1.3783 3.32025 1.3498 3.29254 1.3308 3.26562C1.31497 3.24188 1.30626 3.21971 1.29438 3.19754C1.28013 3.16983 1.26351 3.14371 1.25559 3.11679L1.24372 3.02733C1.30388 2.25388 4.46897 0.861333 8.96088 0.861333ZM18.605 10.4595C18.5115 9.96233 17.94 9.43746 16.7762 8.77483L17.5386 3.1065C17.5412 3.08735 17.5426 3.06804 17.5425 3.04871C17.5433 1.25163 13.0205 0 8.96167 0C4.90359 0 0.381592 1.25163 0.381592 3.04871C0.381727 3.06777 0.383049 3.08681 0.38555 3.10571L2.23172 16.8229C2.28793 18.4078 6.37688 19 8.96088 19C10.3898 19 11.8228 18.8512 12.9968 18.5796C13.4702 18.4704 13.8938 18.3421 14.2571 18.1996C15.1913 17.8299 15.6734 17.366 15.6924 16.8229L16.4405 11.267C16.8815 11.3707 17.2449 11.423 17.5402 11.423C17.9677 11.423 18.2543 11.3145 18.4379 11.096C18.5117 11.0093 18.565 10.907 18.5938 10.7968C18.6226 10.6866 18.6269 10.5713 18.605 10.4595Z" fill="black"/>
</g>
<defs>
<clipPath id="clip0_2613_3244">
<rect width="19" height="19" fill="white"/>
</clipPath>
</defs>
</svg>
