<svg width="21" height="23" viewBox="0 0 21 23" fill="none" xmlns="http://www.w3.org/2000/svg">
<path d="M20.4609 5.7495C20.3008 5.47159 20.0795 5.22913 19.836 5.08825L11.3874 0.210336C10.8996 -0.0714141 10.1032 -0.0714141 9.61638 0.210336L1.16579 5.08825C0.678958 5.36904 0.28125 6.05904 0.28125 6.62159V16.3774C0.28125 16.6592 0.380917 16.9716 0.540958 17.2495C0.701 17.5274 0.922375 17.7699 1.16579 17.9108L9.61446 22.7887C10.1013 23.0695 10.8986 23.0695 11.3855 22.7887L19.8341 17.9108C20.0775 17.7699 20.2989 17.5274 20.459 17.2495C20.619 16.9716 20.7177 16.6592 20.7177 16.3774V6.62159C20.7206 6.33984 20.6219 6.02742 20.4609 5.7495ZM10.5 18.3133C6.74329 18.3133 3.68717 15.2562 3.68717 11.4995C3.68717 7.74284 6.74425 4.68575 10.5009 4.68575C11.6961 4.68802 12.8698 5.00362 13.905 5.60108C14.9401 6.19853 15.8006 7.05695 16.4004 8.09071L13.4526 9.79654C13.1529 9.27879 12.7225 8.84876 12.2046 8.54941C11.6866 8.25007 11.0992 8.0919 10.5009 8.09071C9.59708 8.09147 8.73048 8.45086 8.09138 9.08996C7.45227 9.72907 7.09289 10.5957 7.09213 11.4995C7.09339 12.4028 7.45287 13.2688 8.09171 13.9075C8.73056 14.5461 9.59662 14.9054 10.5 14.9064C11.098 14.9051 11.6852 14.7471 12.2031 14.4481C12.721 14.1492 13.1515 13.7197 13.4516 13.2025L16.4014 14.9083C15.8012 15.9422 14.9405 16.8007 13.905 17.3982C12.8695 17.9956 11.6954 18.3111 10.5 18.3133ZM17.3137 11.878H16.5566V12.6351H15.7995V11.878H15.0425V11.121H15.7995V10.3639H16.5566V11.121H17.3137V11.878ZM20.1523 11.878H19.3952V12.6351H18.6381V11.878H17.881V11.121H18.6381V10.3639H19.3952V11.121H20.1523V11.878Z" fill="black"/>
</svg>
