<svg width="22" height="13" viewBox="0 0 22 13" fill="none" xmlns="http://www.w3.org/2000/svg">
<path d="M22 12.4221C21.6798 12.5432 21.3264 12.543 21.0064 12.4214C20.6864 12.2998 20.4219 12.0653 20.2629 11.7621L17.1004 7.3887L16.6421 6.77729L12.9727 11.7676C12.8232 12.0581 12.5731 12.2841 12.2691 12.4036C11.9651 12.523 11.628 12.5277 11.3208 12.4166L16.049 6.07329L11.6508 0.343202C11.9671 0.229237 12.3129 0.227726 12.6302 0.338923C12.9474 0.45012 13.2166 0.667233 13.3925 0.953702L16.6705 5.3812L19.9668 0.972035C20.1174 0.686757 20.3676 0.466757 20.6698 0.353861C20.972 0.240965 21.3051 0.243043 21.6058 0.359702L19.899 2.62479L17.5872 5.6342C17.523 5.69147 17.4716 5.76166 17.4364 5.84018C17.4013 5.91869 17.3831 6.00375 17.3831 6.08979C17.3831 6.17582 17.4013 6.26088 17.4364 6.33939C17.4716 6.41791 17.523 6.4881 17.5872 6.54537L21.9908 12.423L22 12.4221ZM0.00184433 5.99445L0.386844 4.09237C1.44468 0.331285 5.75668 -1.23346 8.72301 1.09487C10.4601 2.45979 10.8937 4.39212 10.8084 6.57012H1.02301C0.864428 10.4595 3.67126 12.808 7.26001 11.6081C7.84178 11.3987 8.36252 11.0483 8.77559 10.5882C9.18865 10.1281 9.48114 9.57269 9.62684 8.97179C9.81659 8.36129 10.1292 8.25679 10.703 8.43279C10.6074 9.17747 10.3441 9.89077 9.93308 10.519C9.52201 11.1473 8.97383 11.6742 8.32976 12.06C7.26589 12.642 6.04527 12.8726 4.84242 12.719C3.63956 12.5654 2.51608 12.0354 1.63259 11.2048C0.759038 10.2216 0.231081 8.97957 0.129261 7.66829C0.129261 7.45287 0.0559277 7.2512 0.00642766 7.05779C0.00196536 6.70366 -0.000173577 6.34952 1.09966e-05 5.99537L0.00184433 5.99445ZM1.03493 5.73229H9.88443C9.82943 2.91262 8.05018 0.912452 5.67693 0.894119C3.03509 0.857452 1.14493 2.81362 1.02851 5.71945L1.03493 5.73229Z" fill="black"/>
</svg>
