<svg width="23" height="16" viewBox="0 0 23 16" fill="none" xmlns="http://www.w3.org/2000/svg">
<path d="M15.7215 1.58118C15.6112 1.58118 15.5365 1.5946 15.4589 1.61281V1.62527H15.4723C15.524 1.72493 15.6122 1.79777 15.6774 1.88689C15.7291 1.98943 15.7732 2.09198 15.825 2.19356L15.8384 2.17918C15.9285 2.11593 15.9725 2.01435 15.9725 1.86006C15.9342 1.81502 15.9285 1.76998 15.8959 1.72589C15.8575 1.66168 15.7751 1.63006 15.7234 1.57927L15.7215 1.58118ZM5.52958 14.2254H4.64121C4.61622 12.8136 4.52989 11.4035 4.38246 9.99918H4.37479L3.02354 14.2254H2.34792L1.00625 9.99918H0.996667C0.891723 11.4057 0.829403 12.8151 0.809792 14.2254H0C0.0527083 12.3414 0.184 10.5742 0.392917 8.92585H1.495L2.77437 12.8205H2.78204L4.07292 8.92585H5.12229C5.35421 10.8569 5.49029 12.625 5.53246 14.2254H5.52958ZM9.37921 10.3154C9.01696 12.2752 8.53971 13.7012 7.94937 14.5896C7.48746 15.2758 6.98146 15.6179 6.43233 15.6179C6.28571 15.6179 6.1065 15.5738 5.88992 15.4856V15.0122C5.99533 15.0285 6.11992 15.0371 6.25983 15.0371C6.51667 15.0371 6.72271 14.9653 6.87987 14.8244C7.06867 14.6519 7.16258 14.4583 7.16258 14.2446C7.16258 14.0961 7.08879 13.7942 6.94217 13.3399L5.97042 10.3154H6.8425L7.53921 12.5771C7.69637 13.0908 7.7625 13.4492 7.73567 13.6533C8.119 12.6336 8.38542 11.5191 8.53587 10.3154H9.37921ZM21.1907 14.2254H18.6702V8.92585H19.5184V13.5738H21.1907V14.2254ZM18.009 14.3548L17.0353 13.8756C17.1216 13.8028 17.205 13.7242 17.2797 13.6361C17.6947 13.1511 17.9007 12.4305 17.9007 11.4769C17.9007 9.72318 17.2126 8.84535 15.8355 8.84535C15.1608 8.84535 14.6337 9.06768 14.2542 9.51331C13.8422 10.0001 13.6352 10.717 13.6352 11.6648C13.6352 12.5963 13.8172 13.2805 14.1852 13.7156C14.5207 14.1085 15.0257 14.305 15.7023 14.305C15.9553 14.305 16.1872 14.2734 16.3971 14.2111L17.6669 14.9509L18.0119 14.3548H18.009ZM14.8542 13.1646C14.6385 12.8196 14.5312 12.2637 14.5312 11.5009C14.5312 10.1659 14.9375 9.49798 15.7483 9.49798C16.1728 9.49798 16.4862 9.65802 16.6846 9.97714C16.8993 10.3241 17.0066 10.8741 17.0066 11.6284C17.0066 12.9739 16.6003 13.6485 15.7895 13.6485C15.363 13.6485 15.0516 13.4885 14.8523 13.1694L14.8542 13.1646ZM13.2653 12.7573C13.2653 13.2077 13.1004 13.5776 12.7708 13.8651C12.4411 14.1526 12.0012 14.2963 11.4444 14.2963C10.924 14.2963 10.4248 14.1315 9.93696 13.8028L10.1641 13.3466C10.5838 13.5575 10.9624 13.661 11.3045 13.661C11.6227 13.661 11.8728 13.591 12.0549 13.4501C12.1459 13.3815 12.2194 13.2924 12.2693 13.1899C12.3193 13.0875 12.3443 12.9747 12.3424 12.8608C12.3424 12.5445 12.122 12.2762 11.7214 12.051C11.3495 11.8469 10.6068 11.4214 10.6068 11.4214C10.2024 11.1271 10.0012 10.8119 10.0012 10.2934C10.0012 9.86214 10.1516 9.51714 10.4516 9.2536C10.7535 8.98718 11.1416 8.85589 11.6208 8.85589C12.1114 8.85589 12.5599 8.98623 12.9624 9.24881L12.7583 9.70498C12.4367 9.5637 12.0899 9.48873 11.7386 9.48456C11.4674 9.48456 11.2575 9.54973 11.1119 9.68198C11.038 9.74321 10.9784 9.81991 10.9373 9.90668C10.8962 9.99344 10.8747 10.0882 10.8742 10.1841C10.8742 10.4985 11.0985 10.7687 11.5125 10.9987C11.8891 11.2048 12.65 11.6408 12.65 11.6408C13.065 11.9331 13.271 12.2446 13.271 12.7601L13.2653 12.7573ZM22.2563 7.1491C21.7436 7.13568 21.3459 7.18743 21.0134 7.32927C20.9175 7.3676 20.7642 7.3676 20.7508 7.48931C20.8035 7.5401 20.8112 7.62348 20.8562 7.69439C20.9329 7.82281 21.0651 7.99435 21.1878 8.08443C21.322 8.18985 21.4561 8.29143 21.597 8.38152C21.8462 8.53485 22.1289 8.62589 22.3733 8.78018C22.5122 8.87027 22.654 8.98431 22.7949 9.08014C22.8649 9.12806 22.9099 9.21431 23 9.24498V9.22581C22.9559 9.16831 22.9425 9.08493 22.8994 9.02073C22.8352 8.95652 22.771 8.89902 22.7077 8.83577C22.5196 8.58782 22.295 8.36973 22.0417 8.18889C21.8366 8.04898 21.3881 7.85348 21.3037 7.61868L21.2913 7.60527C21.4312 7.59281 21.598 7.54202 21.7321 7.50368C21.9497 7.44618 22.149 7.45864 22.3742 7.4021C22.4758 7.37623 22.5783 7.3446 22.6809 7.31202V7.25452C22.5659 7.13952 22.4796 6.98331 22.3608 6.87598C22.0291 6.58605 21.6754 6.32235 21.3028 6.08727C21.1015 5.95885 20.8466 5.87644 20.6348 5.76719C20.5582 5.72885 20.4297 5.70968 20.3857 5.64548C20.2707 5.50556 20.2036 5.31964 20.1221 5.15289C19.9339 4.78785 19.7591 4.41609 19.5979 4.03835C19.4829 3.78727 19.413 3.53714 19.2721 3.30714C18.6108 2.21752 17.895 1.55723 16.7938 0.91131C16.5571 0.777143 16.2735 0.719643 15.9735 0.648726C15.8135 0.64106 15.6534 0.62956 15.4943 0.622851C15.3889 0.57781 15.2873 0.456101 15.1972 0.397643C14.8331 0.167643 13.8901 -0.330691 13.6217 0.328643C13.4492 0.744559 13.8776 1.15473 14.0262 1.36556C14.1364 1.51218 14.2753 1.67989 14.352 1.84473C14.397 1.95589 14.4095 2.06993 14.4545 2.18589C14.5561 2.46764 14.6529 2.78198 14.7871 3.04552C14.857 3.17968 14.9337 3.32056 15.0238 3.44131C15.0755 3.51127 15.1637 3.54385 15.1838 3.65885C15.0938 3.78918 15.088 3.97893 15.0362 4.13802C14.8062 4.86348 14.8963 5.76048 15.2222 6.29427C15.3247 6.45335 15.5691 6.80602 15.8959 6.67089C16.1834 6.55589 16.1201 6.19173 16.2025 5.87069C16.2217 5.79402 16.2092 5.74323 16.2485 5.69148V5.70585C16.3386 5.88602 16.4287 6.05756 16.5111 6.23773C16.7085 6.55206 17.0535 6.87789 17.342 7.09543C17.4953 7.21043 17.617 7.40977 17.8087 7.48068V7.46152H17.7943C17.7531 7.40593 17.6985 7.3791 17.6467 7.33406C17.5252 7.21511 17.4131 7.08695 17.3113 6.95073C17.0413 6.58179 16.8019 6.1914 16.5955 5.78348C16.49 5.58223 16.4019 5.36564 16.3175 5.16727C16.2792 5.0906 16.2792 4.9756 16.215 4.93727C16.1192 5.07719 15.9783 5.19889 15.9083 5.37139C15.7866 5.64739 15.7742 5.98664 15.7282 6.33931C15.7023 6.34602 15.7148 6.33931 15.7023 6.35273C15.4972 6.30289 15.4272 6.09014 15.3506 5.91189C15.1589 5.45669 15.1273 4.72548 15.2931 4.20127C15.3381 4.0671 15.5298 3.64352 15.4531 3.5151C15.4129 3.39339 15.2864 3.32343 15.2164 3.22473C15.1264 3.09625 15.0494 2.95918 14.9864 2.81552C14.8331 2.4571 14.7564 2.06035 14.5897 1.70193C14.513 1.53614 14.3788 1.36268 14.2696 1.21031C14.1479 1.03781 14.0137 0.916101 13.9169 0.711976C13.8853 0.642018 13.8403 0.52606 13.891 0.449393C13.9045 0.397643 13.9313 0.377518 13.9811 0.363143C14.0655 0.294143 14.3022 0.384226 14.3855 0.42256C14.6222 0.518393 14.8216 0.608476 15.02 0.742643C15.11 0.805893 15.2068 0.927602 15.3218 0.959227H15.456C15.6611 1.00427 15.892 0.972643 16.0837 1.02918C16.4239 1.13843 16.7306 1.29752 17.0056 1.47002C17.8531 2.01139 18.5424 2.76717 19.0037 3.66077C19.0804 3.80835 19.114 3.94348 19.1839 4.09681C19.3181 4.41306 19.4839 4.73218 19.62 5.03789C19.7541 5.33977 19.8835 5.64739 20.0761 5.89752C20.172 6.03168 20.5572 6.10164 20.7297 6.1716C20.8572 6.2291 21.0555 6.28181 21.1705 6.35177C21.391 6.48593 21.6056 6.63927 21.8126 6.78685C21.918 6.85968 22.2372 7.01973 22.2563 7.1491Z" fill="black"/>
</svg>
