<svg width="22" height="22" viewBox="0 0 22 22" fill="none" xmlns="http://www.w3.org/2000/svg">
<g clip-path="url(#clip0_2625_1121)">
<path d="M12.9535 0.0429688C12.7949 0.0429688 12.6473 0.0768854 12.5107 0.122719C12.8004 0.315219 12.9599 0.571885 13.0387 0.861552C13.0451 0.900969 13.0561 0.929385 13.0616 0.968802C13.0684 1.00264 13.0724 1.03698 13.0735 1.07147C13.0955 1.57105 12.9425 1.6343 12.8352 1.92947C12.6702 2.30989 12.716 2.71872 12.914 3.0478C12.9322 3.09193 12.9549 3.13403 12.9819 3.17339C12.7664 1.73605 13.9655 1.52064 14.1864 1.07147C14.2038 0.679135 13.8802 0.417885 13.6244 0.236385C13.4235 0.110095 13.1908 0.0433498 12.9535 0.0438854V0.0429688ZM14.7602 0.366552C14.7382 0.497635 14.7547 0.463719 14.7492 0.531552C14.7437 0.577385 14.7437 0.634219 14.7382 0.679135C14.7263 0.724969 14.7153 0.770802 14.6979 0.815719C14.6869 0.861552 14.6704 0.907385 14.652 0.952302L14.5906 1.08247C14.5723 1.10539 14.5622 1.1283 14.5448 1.15122L14.5109 1.20164C14.4838 1.24054 14.4554 1.27845 14.4256 1.3153C14.3917 1.35014 14.3633 1.38955 14.323 1.41797V1.42347C14.289 1.45189 14.2551 1.4858 14.2148 1.51514C14.0956 1.60589 13.96 1.67372 13.8344 1.75897C13.795 1.78647 13.7546 1.8103 13.7207 1.84422C13.6821 1.87134 13.6459 1.9017 13.6125 1.93497C13.5731 1.96889 13.5447 2.0028 13.5108 2.04314C13.4824 2.07705 13.4485 2.11647 13.4255 2.1568C13.397 2.19518 13.3704 2.23496 13.3458 2.27597C13.3229 2.3218 13.3064 2.36122 13.2835 2.40614C13.266 2.45197 13.2495 2.49139 13.2376 2.53722C13.2226 2.58403 13.2094 2.63143 13.1982 2.6793C13.1927 2.70222 13.1927 2.73064 13.1872 2.75264C13.1808 2.77555 13.1808 2.79847 13.1753 2.82139C13.1753 2.86722 13.1698 2.91764 13.1698 2.96347C13.1698 2.99739 13.1698 3.0313 13.1753 3.06522C13.1753 3.11105 13.1808 3.15689 13.1927 3.2073C13.1982 3.25314 13.2092 3.29897 13.2202 3.3448C13.2385 3.38972 13.2495 3.43464 13.266 3.48047C13.278 3.50797 13.2944 3.5373 13.3064 3.56022L11.9992 3.05422C11.7783 2.99189 11.562 2.93505 11.3401 2.88372L10.9826 2.79847C10.6416 2.73064 10.2951 2.6793 9.94862 2.64539C9.9367 2.64539 9.9312 2.63989 9.9202 2.63989C9.33469 2.58123 8.7452 2.57357 8.15837 2.61697C7.81187 2.63989 7.46537 2.6848 7.11887 2.74164C6.86137 2.786 6.60547 2.8392 6.35162 2.90114L6.09587 2.96897C6.01153 3.00289 5.93087 3.0423 5.85203 3.07714L5.66412 3.16239C5.65312 3.16789 5.64212 3.16789 5.63662 3.17339C5.57887 3.2018 5.52845 3.22472 5.47712 3.25314C5.40331 3.28569 5.33111 3.32179 5.26078 3.3613C5.22137 3.3778 5.18195 3.40072 5.14712 3.41814C5.13084 3.42824 5.11401 3.43742 5.0967 3.44564C5.04537 3.47497 4.99403 3.50339 4.9482 3.5318C4.90142 3.55766 4.85613 3.58612 4.81253 3.61705C4.7722 3.64455 4.73278 3.66747 4.69887 3.69589C4.69337 3.7023 4.68695 3.7023 4.68145 3.7078C4.64753 3.73072 4.60812 3.75914 4.57328 3.78755L4.56228 3.79855L4.47703 3.86639C4.46603 3.8728 4.45412 3.8838 4.44312 3.8893C4.4147 3.91222 4.38628 3.94064 4.35787 3.96264C4.35237 3.97455 4.34045 3.98097 4.33495 3.98555C4.30103 4.02039 4.26712 4.0488 4.2332 4.08272C4.22678 4.08272 4.22678 4.08822 4.22128 4.09372C4.18596 4.1246 4.15201 4.15702 4.11953 4.19089C4.11312 4.19639 4.11312 4.20189 4.10762 4.20189C4.07778 4.23109 4.04933 4.26168 4.02237 4.29355C4.01137 4.30455 3.99487 4.31555 3.98295 4.32655C3.95251 4.36257 3.92007 4.39684 3.88578 4.42922C3.88028 4.44022 3.86928 4.44664 3.86378 4.45672C3.81795 4.50255 3.77853 4.54839 3.7327 4.59422L3.7162 4.61072C3.62453 4.70789 3.52828 4.80414 3.42562 4.88939C3.32387 4.98105 3.2157 5.06539 3.10753 5.13964C2.89035 5.29477 2.65596 5.42427 2.40903 5.52555C2.28987 5.57689 2.16428 5.62272 2.03962 5.66214C1.80128 5.71347 1.55653 5.80972 1.34662 5.82714C1.30078 5.82714 1.25037 5.83814 1.20453 5.84364L1.06245 5.87755L0.925868 5.92889C0.880034 5.9463 0.835118 5.96922 0.790201 5.99122C0.749868 6.01964 0.704951 6.04255 0.664618 6.07097C0.624173 6.10024 0.586161 6.13274 0.550951 6.16814C0.511534 6.19564 0.471201 6.23597 0.437284 6.26989C0.403368 6.3093 0.369451 6.34322 0.341034 6.38355C0.312618 6.42939 0.278701 6.4688 0.255784 6.51464C0.225926 6.55593 0.199266 6.59945 0.176034 6.6448C0.153118 6.69614 0.130201 6.74197 0.113701 6.79239C0.0962843 6.83822 0.0797843 6.88955 0.0623676 6.93997C0.0513676 6.9858 0.0394509 7.03164 0.0348676 7.07747C0.0348676 7.08205 0.0284509 7.08847 0.0284509 7.09397C0.0174509 7.1453 0.0174509 7.21314 0.0110343 7.24705C0.00553428 7.28739 3.4278e-05 7.32039 3.4278e-05 7.36072C-0.00102036 7.45957 0.0222762 7.55717 0.0678676 7.64489V7.65039C0.0852843 7.6843 0.108201 7.71914 0.131118 7.75305C0.153118 7.78697 0.176951 7.82089 0.204451 7.8548C0.232868 7.88322 0.266784 7.91805 0.301618 7.94647C0.33474 7.97969 0.370619 8.01005 0.408868 8.03722C0.545451 8.15639 0.579368 8.1958 0.755368 8.28655C0.783784 8.30397 0.812201 8.31497 0.847034 8.33239C0.852534 8.33239 0.858034 8.33789 0.863534 8.33789C0.863534 8.3498 0.863534 8.3553 0.869034 8.3663C0.882303 8.46 0.906929 8.55173 0.942368 8.63947C0.960701 8.67339 0.971701 8.7073 0.988201 8.74122C0.994618 8.75314 1.00012 8.76414 1.00653 8.76964C1.02853 8.81547 1.05145 8.85489 1.07345 8.89522L1.1587 9.01439C1.18712 9.0483 1.22195 9.08772 1.25587 9.12255C1.28978 9.15647 1.3237 9.18489 1.36403 9.2188C1.36403 9.2188 1.36953 9.2243 1.37503 9.2243C1.40895 9.25272 1.44287 9.28114 1.4777 9.30405C1.51723 9.33179 1.55892 9.35631 1.60237 9.37739C1.64178 9.4003 1.68762 9.42322 1.73253 9.44064C1.76916 9.45716 1.80721 9.47035 1.8462 9.48005C1.85262 9.48555 1.85812 9.48555 1.86912 9.49105C1.89203 9.49747 1.92045 9.50297 1.94245 9.50847C1.92595 9.81555 1.92045 10.1043 1.96628 10.207C2.0167 10.3206 2.26695 9.97414 2.51628 9.5763C2.48328 9.96864 2.46037 10.4288 2.51628 10.5654C2.57953 10.7075 2.91962 10.2638 3.2157 9.77522C7.24445 8.84389 10.9203 11.6269 11.3062 15.5594C11.2329 14.9452 10.4766 14.6051 10.1301 14.6904C9.95962 15.1102 9.66995 15.6501 9.20428 15.9856C9.2437 15.6098 9.2272 15.2248 9.14745 14.849C9.0202 15.3721 8.77956 15.8609 8.44253 16.2808C7.90353 16.3202 7.36362 16.059 7.07945 15.6666C7.05653 15.6501 7.05103 15.6162 7.03362 15.5933C7.01712 15.5539 6.9997 15.5136 6.98778 15.4741C6.97129 15.4361 6.95989 15.396 6.95387 15.355C6.94837 15.3146 6.94837 15.2752 6.94837 15.2294V15.1441C6.95515 15.1038 6.96464 15.064 6.97678 15.025C6.9887 14.9856 6.9997 14.9461 7.01712 14.9058C7.03912 14.8664 7.05653 14.8261 7.08495 14.7866C7.1812 14.5135 7.1812 14.2916 7.0052 14.1615C6.97102 14.1392 6.9348 14.1201 6.89703 14.1046C6.87503 14.0991 6.84662 14.0881 6.8237 14.0817L6.77787 14.0652C6.73896 14.0526 6.69911 14.0431 6.6587 14.0368C6.61998 14.0255 6.57987 14.0196 6.53953 14.0194C6.49827 14.0129 6.45662 14.0092 6.41487 14.0084C6.38645 14.0084 6.35803 14.0139 6.32962 14.0139C6.28714 14.0136 6.24485 14.0195 6.20403 14.0313C6.16462 14.0368 6.1252 14.0423 6.08487 14.0533C6.04432 14.0642 6.00452 14.0777 5.9657 14.0936C5.92628 14.1101 5.89237 14.1276 5.85203 14.145C5.81812 14.1615 5.7842 14.1844 5.74387 14.2018C4.4202 15.0653 5.21037 17.0875 6.11328 17.6732C5.77228 17.7356 5.42578 17.8089 5.32953 17.8831L5.31762 17.8941C5.56237 18.0417 5.81812 18.1673 6.08487 18.2755C6.44878 18.3946 6.8347 18.5019 7.0052 18.5477V18.5532C7.47594 18.6499 7.95732 18.6844 8.43703 18.6559C10.9542 18.4799 13.0167 16.565 13.3916 14.0423L13.4255 14.1899C13.443 14.2926 13.4649 14.4007 13.4769 14.508V14.5135C13.4879 14.5648 13.4934 14.6161 13.4998 14.662V14.684C13.5053 14.7353 13.5108 14.7866 13.5108 14.8325C13.5163 14.8948 13.5218 14.9571 13.5218 15.0195V15.1111C13.5218 15.1386 13.5282 15.1726 13.5282 15.201C13.5282 15.2358 13.5218 15.2697 13.5218 15.3036V15.3834C13.5218 15.4228 13.5163 15.4567 13.5163 15.4971C13.5163 15.52 13.5163 15.5429 13.5108 15.5704C13.5108 15.6107 13.5053 15.6501 13.5053 15.696C13.4998 15.7125 13.4998 15.7299 13.4998 15.7464L13.4815 15.8775C13.4815 15.8949 13.4815 15.9114 13.4769 15.9288C13.4704 15.9856 13.4594 16.037 13.4539 16.0938V16.1048L13.42 16.2643V16.2808L13.3861 16.4339C13.3861 16.4403 13.3797 16.4522 13.3797 16.4568C13.3692 16.5088 13.3561 16.5602 13.3403 16.6108V16.6273C13.3229 16.6841 13.3064 16.7355 13.2945 16.7868C13.2889 16.7923 13.2889 16.7978 13.2889 16.7978L13.2376 16.9683C13.2156 17.0251 13.1982 17.0765 13.1753 17.1333C13.1524 17.1901 13.1359 17.247 13.113 17.2983C13.09 17.3551 13.0671 17.4056 13.0451 17.4633H13.0387C13.0167 17.5137 12.9929 17.5706 12.9654 17.6219C12.9606 17.6355 12.9548 17.6486 12.948 17.6613C12.9425 17.6668 12.9425 17.6732 12.9369 17.6787C12.5612 18.431 12.0143 19.0846 11.3401 19.5872C11.2943 19.6156 11.2494 19.6505 11.2035 19.6844C11.1925 19.6954 11.176 19.7009 11.1641 19.7119C11.1235 19.7419 11.0819 19.7707 11.0395 19.7981L11.056 19.832H11.0624L11.3007 19.7981H11.3062C11.4538 19.7751 11.6014 19.7467 11.749 19.7183C11.7893 19.7128 11.8342 19.7009 11.8745 19.6899L11.9543 19.6725C11.9937 19.667 12.0331 19.656 12.0735 19.6505C12.1074 19.6386 12.1413 19.6321 12.1752 19.6221C12.7435 19.4846 13.2944 19.2976 13.8234 19.0766C12.9102 20.3204 11.6958 21.3115 10.2942 21.9568C10.9487 21.911 11.6014 21.8037 12.232 21.6213C14.5147 20.9502 16.4427 19.4096 17.601 17.3313C17.367 18.647 16.8452 19.8946 16.0729 20.9851C16.6235 20.6219 17.1323 20.1989 17.59 19.7238C18.8617 18.3961 19.6966 16.711 19.9825 14.8948C20.1749 15.7931 20.2318 16.719 20.1475 17.6329C24.2486 11.912 20.4875 5.98022 18.9136 4.41822C18.9081 4.4063 18.9026 4.4008 18.9026 4.3898C18.8971 4.3953 18.8971 4.3953 18.8971 4.4008C18.8971 4.3953 18.8971 4.3953 18.8907 4.3898C18.8907 4.45764 18.8852 4.52547 18.8797 4.59422C18.864 4.72148 18.845 4.84833 18.8229 4.97464C18.7954 5.0993 18.7605 5.22489 18.7266 5.35047C18.6863 5.46964 18.6414 5.5943 18.5891 5.71347C18.5372 5.83116 18.4806 5.94675 18.4195 6.05997C18.2927 6.28269 18.1464 6.49374 17.9823 6.69064C17.897 6.79239 17.8063 6.88314 17.7146 6.9748C17.661 7.02379 17.606 7.07117 17.5496 7.11689L17.4195 7.23055C17.318 7.3106 17.2118 7.38438 17.1014 7.45147C16.9928 7.52141 16.8808 7.58596 16.7659 7.64489C16.6467 7.70172 16.5275 7.75305 16.4084 7.80439C16.1656 7.8967 15.9145 7.96516 15.6585 8.0088C15.5275 8.03172 15.3973 8.04272 15.2717 8.05464C15.1811 8.06105 15.0903 8.06472 14.9995 8.06564C14.8702 8.06385 14.7411 8.05621 14.6126 8.04272C14.4828 8.03253 14.3539 8.01354 14.2267 7.98589C14.0979 7.9625 13.9707 7.93035 13.8463 7.88964H13.8399C13.9654 7.87772 14.0901 7.86672 14.2157 7.8438C14.4715 7.79945 14.7226 7.73101 14.9655 7.63939C15.0902 7.59355 15.2094 7.53672 15.323 7.47989C15.4422 7.42305 15.5504 7.36072 15.664 7.29289C15.7722 7.21955 15.8795 7.1453 15.9821 7.06555C16.0848 6.9858 16.181 6.90055 16.2718 6.8098C16.368 6.72455 16.4533 6.6283 16.5385 6.53114C16.6238 6.42939 16.7035 6.32672 16.7769 6.22497C16.7888 6.20755 16.8007 6.18464 16.8117 6.16814C16.8685 6.07647 16.9254 5.98572 16.9767 5.89497C17.102 5.66885 17.2045 5.43088 17.2829 5.18455C17.3232 5.06539 17.3516 4.94072 17.38 4.81514C17.403 4.68497 17.4259 4.5603 17.4369 4.43472C17.4479 4.30455 17.4598 4.17347 17.4598 4.0488C17.4598 3.95714 17.4534 3.86639 17.4479 3.77564C17.4365 3.64839 17.4212 3.52152 17.402 3.39522C17.3799 3.26715 17.3518 3.14021 17.3177 3.0148C17.2774 2.89564 17.2379 2.77005 17.1921 2.65089C17.1463 2.53172 17.0904 2.41255 17.0335 2.29889C16.9703 2.18522 16.908 2.07155 16.8401 1.96339C16.7676 1.85719 16.6917 1.75325 16.6128 1.65172C16.5275 1.55455 16.4423 1.45739 16.3515 1.36114C16.3037 1.31237 16.2545 1.26499 16.204 1.21905C15.9473 1.02014 15.6815 0.833135 15.4138 0.662635C15.3771 0.64143 15.3391 0.622451 15.3001 0.605802C15.1316 0.502616 14.95 0.421543 14.7602 0.366552Z" fill="black"/>
</g>
<defs>
<clipPath id="clip0_2625_1121">
<rect width="22" height="22" fill="white"/>
</clipPath>
</defs>
</svg>
