<svg width="23" height="23" viewBox="0 0 23 23" fill="none" xmlns="http://www.w3.org/2000/svg">
<g clip-path="url(#clip0_2625_1123)">
<path d="M11.0901 0C10.9212 0 10.7932 0.00124583 10.7467 0.00642083C10.6972 0.0115 10.5398 0.0265458 10.3982 0.0378542C7.13144 0.33235 4.07158 2.09473 2.13354 4.80345C1.05436 6.30967 0.364167 8.01799 0.1035 9.82771C0.0113083 10.4592 0 10.6458 0 11.5023C0 12.3588 0.0115 12.5454 0.1035 13.1771C0.728333 17.4953 3.8018 21.1235 7.97017 22.4676C8.71662 22.7083 9.5035 22.8723 10.3983 22.9712C10.7468 23.0096 12.2531 23.0096 12.6015 22.9712C14.1461 22.8004 15.4547 22.4183 16.7451 21.7596C16.943 21.6584 16.9812 21.6315 16.9543 21.6089C16.9362 21.5956 16.093 20.4648 15.0814 19.098L13.2423 16.614L10.9378 13.204C9.66987 11.3291 8.62663 9.79618 8.61762 9.79618C8.60861 9.79369 8.5997 11.3091 8.5951 13.159C8.58868 16.3983 8.58619 16.5287 8.54565 16.6051C8.48719 16.7153 8.44215 16.7602 8.34785 16.8096C8.27598 16.8455 8.21292 16.8523 7.87347 16.8523H7.48439L7.38108 16.7871C7.31702 16.747 7.26497 16.6903 7.23043 16.6231L7.18319 16.5219L7.18827 12.0148L7.19469 7.50548L7.26426 7.41779C7.3003 7.37054 7.37677 7.30997 7.43063 7.28075C7.52282 7.2357 7.55885 7.2312 7.94775 7.2312C8.4065 7.2312 8.48288 7.24912 8.602 7.37945C8.63583 7.41558 9.88358 9.29488 11.3764 11.5586C12.8878 13.8498 14.4002 16.1404 15.9135 18.4304L17.7345 21.1887L17.8265 21.128C18.6428 20.5975 19.506 19.8421 20.1895 19.0554C21.6441 17.3851 22.5818 15.3486 22.8965 13.177C22.9886 12.5454 22.9998 12.3586 22.9998 11.5023C22.9998 10.6458 22.9883 10.4592 22.8965 9.82752C22.2715 5.50927 19.1981 1.88111 15.0298 0.536954C14.2946 0.298617 13.5122 0.134454 12.6354 0.0355542C12.4735 0.0186875 11.5969 0.000383333 11.0901 0ZM14.9891 6.91629C15.3219 6.91629 15.3803 6.92137 15.4546 6.96133C15.5626 7.01519 15.6501 7.11869 15.6817 7.2265C15.6995 7.28496 15.7041 8.53492 15.6995 11.3516L15.6931 15.3933L14.9805 14.3008L14.2655 13.2083V10.2701C14.2655 8.37066 14.2744 7.30279 14.2879 7.25113C14.3238 7.1253 14.4025 7.02631 14.5105 6.96795C14.6026 6.9206 14.6361 6.91629 14.9891 6.91629Z" fill="black"/>
</g>
<defs>
<clipPath id="clip0_2625_1123">
<rect width="23" height="23" fill="white"/>
</clipPath>
</defs>
</svg>
