<svg width="21" height="24" viewBox="0 0 21 24" fill="none" xmlns="http://www.w3.org/2000/svg">
<path d="M10.4985 24C10.1818 24 9.86604 23.916 9.58878 23.753L6.69182 22.016C6.25964 21.771 6.4708 21.684 6.61288 21.633C7.1901 21.43 7.30654 21.383 7.92322 21.029C7.98736 20.992 8.07222 21.006 8.13833 21.046L10.3643 22.385C10.4452 22.43 10.5587 22.43 10.6327 22.385L19.3108 17.3091C19.3917 17.2621 19.443 17.1681 19.443 17.0711V6.92118C19.443 6.82218 19.3907 6.72918 19.3078 6.67918L10.6337 1.60723C10.5538 1.56023 10.4472 1.56023 10.3663 1.60723L1.69417 6.68018C1.6103 6.72918 1.55702 6.82518 1.55702 6.92118V17.0711C1.55702 17.1681 1.6103 17.2601 1.69417 17.3061L4.07114 18.6981C5.36076 19.352 6.15111 18.5821 6.15111 17.8081V7.78717C6.15111 7.64517 6.26359 7.53417 6.4037 7.53417H7.50388C7.64103 7.53417 7.75549 7.64617 7.75549 7.78717V17.8081C7.75549 19.553 6.81812 20.553 5.18611 20.553C4.68487 20.553 4.2892 20.553 3.18705 20.002L0.90974 18.6751C0.347319 18.3461 0 17.7301 0 17.0711V6.92118C0 6.26218 0.348306 5.64619 0.90974 5.31819L9.58779 0.236248C10.1374 -0.0787492 10.8666 -0.0787492 11.4112 0.236248L20.0883 5.31819C20.6507 5.64719 21 6.26218 21 6.92118V17.0711C21 17.7301 20.6507 18.3441 20.0883 18.6751L11.4112 23.753C11.1349 23.916 10.8202 24 10.4985 24ZM17.5051 13.9931C17.5051 12.0931 16.2382 11.5871 13.5711 11.2301C10.8764 10.8691 10.6021 10.6821 10.6021 10.0431C10.6021 9.51515 10.834 8.81016 12.8301 8.81016C14.6131 8.81016 15.2702 9.19915 15.5406 10.4171C15.5643 10.5321 15.6679 10.6161 15.7843 10.6161H16.9101C16.9802 10.6161 17.0463 10.5851 17.0936 10.5351C17.141 10.4811 17.1667 10.4121 17.1598 10.3391C16.9851 8.24116 15.6096 7.26317 12.8301 7.26317C10.3554 7.26317 8.87934 8.32116 8.87934 10.0961C8.87934 12.0211 10.3476 12.5531 12.7225 12.7911C15.5643 13.0731 15.7843 13.4941 15.7843 14.0601C15.7843 15.0431 15.0058 15.4621 13.1774 15.4621C10.8814 15.4621 10.3762 14.8781 10.2065 13.7201C10.1867 13.5961 10.0821 13.5051 9.95682 13.5051H8.83494C8.69581 13.5051 8.58432 13.6171 8.58432 13.7581C8.58432 15.2401 9.3796 17.0061 13.1774 17.0061C15.9283 17.0071 17.5051 15.9101 17.5051 13.9931Z" fill="black"/>
</svg>
