<svg width="21" height="21" viewBox="0 0 21 21" fill="none" xmlns="http://www.w3.org/2000/svg">
<g clip-path="url(#clip0_2613_3236)">
<path d="M10.5 0C16.2986 0 21 4.70138 21 10.5C21 16.2986 16.2986 21 10.5 21C4.70138 21 0 16.2986 0 10.5C0 4.70138 4.70138 0 10.5 0ZM8.41313 13.9983C8.56625 14.5626 8.54962 15.0903 8.39212 15.5663L8.33525 15.7237C8.31425 15.7771 8.28975 15.8287 8.267 15.8778C8.1445 16.1315 7.98175 16.3678 7.78137 16.5865C7.17062 17.2506 6.31838 17.5026 5.95262 17.2909C5.55888 17.0616 5.75488 16.1227 6.46362 15.3746C7.22575 14.5714 8.31862 14.0543 8.31862 14.0543V14.0516L8.41313 13.9983ZM17.0852 4.49487C16.611 2.6285 13.5179 2.01513 10.591 3.0555C8.85063 3.67413 6.965 4.64625 5.60962 5.91412C3.997 7.42 3.74062 8.7325 3.8465 9.28113C4.22012 11.2158 6.87138 12.481 7.96163 13.4199V13.4251C7.6405 13.5826 5.28763 14.763 4.73637 15.9845C4.14575 17.2708 4.82825 18.1904 5.2745 18.3076C6.65263 18.6891 8.07013 17.9926 8.83138 16.8647C9.56638 15.7614 9.50163 14.3439 9.18487 13.6482C9.61887 13.5301 10.1299 13.4776 10.7861 13.5573C12.6245 13.7673 12.992 14.9222 12.9124 15.3947C12.8336 15.8664 12.4548 16.142 12.3226 16.2208C12.1914 16.3004 12.152 16.3258 12.1643 16.3791C12.1774 16.4579 12.2439 16.4579 12.348 16.4447C12.4924 16.4185 13.307 16.051 13.3464 15.1576C13.3857 14.0289 12.3086 12.7698 10.3933 12.7951C9.60575 12.8091 9.10612 12.8748 8.75263 13.0191C8.72638 12.9797 8.69925 12.9535 8.66075 12.9272C7.4795 11.6541 5.28762 10.7616 5.3795 9.0685C5.40575 8.45162 5.62888 6.825 9.5795 4.85625C12.8214 3.241 15.4079 3.68813 15.8541 4.6725C16.4955 6.076 14.4751 8.68875 11.102 9.0685C9.81575 9.21288 9.14637 8.715 8.97487 8.53037C8.792 8.3335 8.76575 8.32038 8.70012 8.36063C8.59513 8.41313 8.66075 8.58375 8.70012 8.68875C8.80513 8.95125 9.212 9.41062 9.92163 9.64687C10.5376 9.84375 12.0479 9.961 13.8591 9.25313C15.8926 8.4665 17.4807 6.27375 17.0214 4.43625L17.0852 4.49487Z" fill="black"/>
</g>
<defs>
<clipPath id="clip0_2613_3236">
<rect width="21" height="21" fill="white"/>
</clipPath>
</defs>
</svg>
