<svg width="23" height="23" viewBox="0 0 23 23" fill="none" xmlns="http://www.w3.org/2000/svg">
<path d="M20.9421 1.34222C20.6228 2.10826 20.2094 2.83163 19.7116 3.49569C18.6456 2.39342 17.3694 1.51613 15.9584 0.9157C14.5475 0.315275 13.0304 0.00391471 11.497 3.66779e-05C9.96359 -0.00384135 8.44498 0.299842 7.03099 0.893123C5.617 1.4864 4.33635 2.35723 3.2648 3.4541C2.19325 4.55097 1.35255 5.85159 0.792434 7.27904C0.23232 8.7065 -0.0358318 10.2318 0.00383863 11.7647C0.0435091 13.2976 0.390196 14.8069 1.02339 16.2035C1.65659 17.6001 2.56344 18.8555 3.69029 19.8955L4.11627 20.2741C5.73276 21.6374 7.69503 22.5267 9.78578 22.8435C11.8765 23.1603 14.0142 22.8922 15.962 22.069C17.9098 21.2458 19.5917 19.8995 20.8215 18.1793C22.0514 16.4591 22.7811 14.4321 22.9299 12.3227C23.2612 9.43564 22.3857 5.74394 20.9421 1.34222ZM5.34696 19.9901C5.22529 20.1397 5.06202 20.2498 4.87779 20.3065C4.69356 20.3633 4.49664 20.3642 4.31192 20.309C4.1272 20.2539 3.96296 20.1453 3.83996 19.9968C3.71696 19.8484 3.64072 19.6668 3.62088 19.4751C3.60104 19.2833 3.63849 19.09 3.72849 18.9195C3.81849 18.7491 3.95701 18.6091 4.12653 18.5173C4.29606 18.4255 4.48898 18.3861 4.68093 18.4039C4.87288 18.4217 5.05523 18.4961 5.20494 18.6175C5.40121 18.7837 5.5256 19.0194 5.55207 19.2753C5.57854 19.5311 5.50505 19.7873 5.34696 19.9901ZM20.8711 16.5587C18.055 20.3214 11.9968 19.0435 8.13945 19.2329C8.13945 19.2329 7.45319 19.2802 6.76683 19.3748C6.76683 19.3748 7.02721 19.2565 7.35851 19.1382C10.08 18.1916 11.3578 18.0023 13.0144 17.1503C16.1145 15.5648 19.2146 12.0861 19.8299 8.48899C18.6466 11.9441 15.0496 14.9258 11.7838 16.1328C9.53565 16.961 5.48899 17.7657 5.48899 17.7657L5.32329 17.671C2.57815 16.322 2.48356 10.3585 7.50043 8.44165C9.70134 7.58969 11.7838 8.06311 14.174 7.49511C16.7061 6.90343 19.6406 5.01024 20.8239 2.52548C22.149 6.52479 23.7583 12.725 20.8711 16.5587Z" fill="black"/>
</svg>
