<svg width="25" height="24" viewBox="0 0 25 24" fill="none" xmlns="http://www.w3.org/2000/svg">
<g clip-path="url(#clip0_2625_1137)">
<path d="M7.82083 0C7.52187 0 7.22396 0 6.925 0.002C6.67396 0.004 6.42187 0.005 6.17083 0.012C6.03333 0.015 5.89687 0.021 5.75937 0.027C5.34696 0.0423982 4.93603 0.0834846 4.52917 0.15C3.98692 0.242046 3.46136 0.408765 2.96875 0.645C1.97988 1.1279 1.17579 1.89913 0.671875 2.848C0.416667 3.328 0.255208 3.82 0.15625 4.348C0.059375 4.868 0.0291667 5.398 0.0145833 5.924C0.00783105 6.16529 0.00366416 6.40663 0.00208333 6.648C0 6.935 0 7.221 0 7.508V16.492C0 16.779 0 17.067 0.00208333 17.354C0.00416667 17.594 0.00729167 17.835 0.0145833 18.076C0.0291667 18.602 0.059375 19.133 0.15625 19.652C0.255208 20.18 0.416667 20.672 0.671875 21.152C1.17521 22.1013 1.97946 22.8727 2.96875 23.355C3.46875 23.599 3.97917 23.755 4.52917 23.85C5.07083 23.943 5.62292 23.974 6.17083 23.988C6.42187 23.995 6.67396 23.997 6.925 23.998C7.22396 24 7.52187 24 7.82083 24H17.1792C17.4781 24 17.776 24 18.075 23.998C18.326 23.997 18.5781 23.995 18.8292 23.988C19.3799 23.9817 19.9294 23.9356 20.4729 23.85C21.0158 23.7603 21.5417 23.5935 22.0333 23.355C23.0216 22.872 23.825 22.1008 24.3281 21.152C24.5833 20.672 24.7448 20.18 24.8438 19.652C24.9406 19.132 24.9729 18.602 24.9875 18.076C24.9948 17.835 24.9969 17.595 24.9979 17.354C25 17.067 25 16.779 25 16.492V7.508C25 7.221 25 6.935 24.9979 6.648C24.9971 6.40664 24.9937 6.16529 24.9875 5.924C24.9809 5.39594 24.9329 4.86912 24.8438 4.348C24.7505 3.82618 24.5767 3.32063 24.3281 2.848C23.8248 1.89939 23.0215 1.12819 22.0333 0.645C21.5417 0.406466 21.0158 0.239632 20.4729 0.15C19.9294 0.0643065 19.3799 0.0181751 18.8292 0.012C18.5785 0.00618273 18.3278 0.00284922 18.0771 0.002C17.7781 0 17.4781 0 17.1792 0H7.82083ZM14.1073 3.41C18.3927 5.88 20.925 10.572 19.8875 14.541C19.8625 14.634 19.8354 14.722 19.8083 14.813L19.8104 14.814C21.9583 17.352 21.3729 20.072 21.0979 19.559C19.9812 17.473 17.9042 17.991 16.8396 18.516C16.7433 18.5709 16.6457 18.6236 16.5469 18.674L16.526 18.686L16.524 18.688C14.3208 19.811 11.3604 19.893 8.38646 18.666C5.96493 17.6587 3.91707 15.9723 2.51146 13.828C3.1875 14.308 3.91771 14.73 4.69583 15.08C7.84062 16.494 10.999 16.391 13.2344 15.078C10.0531 12.73 7.39687 9.67 5.36042 7.191C4.97329 6.75742 4.6232 6.29458 4.31354 5.807C6.75104 7.949 10.6031 10.637 11.9854 11.383C9.05208 8.408 6.46667 4.743 6.5875 4.86C11.2083 9.33 15.4708 11.856 15.4708 11.856C15.6312 11.941 15.7521 12.01 15.8458 12.069C15.9344 11.854 16.0125 11.632 16.0792 11.401C16.8167 8.813 15.9854 5.853 14.1073 3.409V3.41Z" fill="black"/>
</g>
<defs>
<clipPath id="clip0_2625_1137">
<rect width="25" height="24" fill="white"/>
</clipPath>
</defs>
</svg>
