<svg width="24" height="32" viewBox="0 0 24 32" fill="none" xmlns="http://www.w3.org/2000/svg">
<path d="M0 3.00029C0 1.34388 1.34375 0 3 0V3.00029V27.5902L11.1313 21.7834C11.65 21.4083 12.3562 21.4083 12.875 21.7834L21 27.5902V3.00029H3V0H21C22.6562 0 24 1.34388 24 3.00029V30.503C24 31.0655 23.6875 31.5781 23.1875 31.8343C22.6875 32.0906 22.0875 32.0469 21.6313 31.7218L12 24.8462L2.36875 31.7218C1.9125 32.0469 1.3125 32.0906 0.8125 31.8343C0.3125 31.5781 0 31.0655 0 30.503V3.00029Z" fill="white"/>
</svg>
